<svg xmlns="http://www.w3.org/2000/svg" xmlns:xlink="http://www.w3.org/1999/xlink" preserveAspectRatio="none" width="45" height="45"><defs><path d="m20.6 36.55 2.7-10.3L33.6 29l1-3.85-14.1-3.8-3.8 14.2 3.9 1M16.4 0l-2.75 10.3-10.3-2.75L2.3 11.4l14.2 3.8 3.75-14.15L16.4 0m-1.2 19.95-14.15-3.8L0 20.05l10.3 2.7-2.75 10.3 3.85 1.05 3.8-14.15m21.7-3.4L26.65 13.8 29.4 3.5l-3.85-1.05-3.8 14.2 14.1 3.75 1.05-3.85Z" id="_______1_0_Layer0_0_FILL"/></defs><use xlink:href="#_______1_0_Layer0_0_FILL" transform="translate(4.05 4.25)" id="_____1"/></svg>