<svg xmlns="http://www.w3.org/2000/svg" xmlns:xlink="http://www.w3.org/1999/xlink" preserveAspectRatio="none" width="45" height="45"><defs><path d="M24.15 4.15h.05Q20.15.1 14.55 0h-.75Q8.2.1 4.15 4.15.1 8.15 0 13.85v.7q.1 5.6 4.15 9.65v.05q4.2 4.1 10 4.1 4.85 0 8.55-2.8l11.35 11.3 2.8-2.85L25.5 22.75q2.85-3.75 2.85-8.55 0-5.95-4.2-10.05m.2 10.05q0 4.15-3 7.2-3 2.95-7.2 2.95Q10 24.35 7 21.4h-.05Q4.1 18.45 4 14.45v-.55Q4.1 9.85 7 7h-.05Q9.9 4.1 13.9 4h.6q3.95.1 6.85 3 3 2.95 3 7.2Z" id="_______5_0_Layer0_0_FILL"/></defs><use xlink:href="#_______5_0_Layer0_0_FILL" transform="translate(4.1 4.1)" id="_____1"/></svg>