<svg xmlns="http://www.w3.org/2000/svg" xmlns:xlink="http://www.w3.org/1999/xlink" preserveAspectRatio="none" width="45" height="45"><defs><path d="M30.1 24.45h.05q.9-1.25 1.65-2.6l4.15.1.1-4-2.5-.05q0-.1.05-.2l.95-2.65-33.7.05.9 2.65.3.8H0v4h4.05q.55.95 1.25 1.9 5.1 6.8 12.35 6.75 7.3.05 12.45-6.75m-1.45-5.25q-.05.1-.05.2l-.1.1v.1q-.75 1.25-1.6 2.45v.05q-3.85 5.05-9.25 5.1-5.35-.05-9.1-5.1l-.05-.05q-.8-1.05-1.45-2.2-.1-.25-.2-.4-.1-.2-.2-.35l22.05-.05q-.05.05-.05.15m-.1.7-.05.1v-.05l.05-.2v.15M9.05 32.85v4h17.3v-4H9.05M19.65 0h-4v11.55h4V0m-6.7 10.35V3.1h-4v7.25h4m13.15-6.1h-4v5.95h4V4.25Z" id="_______7_0_Layer0_0_FILL"/></defs><use xlink:href="#_______7_0_Layer0_0_FILL" transform="translate(4.5 4.1)" id="_____1"/></svg>