<svg xmlns="http://www.w3.org/2000/svg" xmlns:xlink="http://www.w3.org/1999/xlink" preserveAspectRatio="none" width="45" height="45"><defs><path d="M29.8 12.8q-2.15-2.15-5.2-2.15-2.85 0-4.85 1.8L15.3 9.4q.3-1 .3-2.1 0-3-2.1-5.2h-.05Q11.35 0 8.25 0q-3 0-5.15 2.05l-.1.1Q.95 4.3.95 7.3q0 3.1 2.1 5.2v.05q2.2 2.1 5.2 2.1 2.9 0 4.95-1.85l4.4 3q-.35 1-.35 2.2V18.3q.1 1.5.65 2.75l-5.1 2.65-.25-.25q-2.1-2.15-5.2-2.15t-5.2 2.15Q0 25.55 0 28.65t2.15 5.15v.05Q4.25 36 7.35 36q3.05 0 5.15-2.15 0-.05.05-.05 2.15-2.1 2.15-5.15 0-.7-.1-1.35l5.95-3.15q1.75 1.15 4.05 1.15 3.05 0 5.2-2.1 2.1-2.15 2.1-5.2 0-3.1-2.1-5.2m-2.85 2.85q.95.95.95 2.35 0 1.35-.95 2.35-1 .95-2.35.95-1.4 0-2.35-.95l-.15-.15q-.023-.026-.05-.05-.751-.885-.8-2.05V18q0-.9.4-1.6.15-.2.25-.4.1-.15.25-.3l.1-.05q.95-1 2.35-1 1.35 0 2.35 1M10.65 4.9v.05q.95 1 .95 2.35 0 .95-.45 1.7-.05.05-.05.1l-.05.05q-.05.05-.05.1-.15.25-.35.45-1 .95-2.4.95-1.35 0-2.35-.95h-.05q-.9-1-.9-2.4 0-1.35.9-2.35 0-.05.05-.05 1-.9 2.35-.9 1.4 0 2.4.9m-.3 22.3q.35.7.35 1.45 0 1.4-.95 2.3l-.1.1q-.9.95-2.3.95T5 31h-.05Q4 30.05 4 28.65q0-1.4 1-2.35.95-1 2.35-1 1.4 0 2.35.95v.05q.4.4.65.9Z" id="_______15_0_Layer0_0_FILL"/></defs><use xlink:href="#_______15_0_Layer0_0_FILL" transform="translate(6.55 4.5)" id="_____1"/></svg>