<svg xmlns="http://www.w3.org/2000/svg" xmlns:xlink="http://www.w3.org/1999/xlink" preserveAspectRatio="none" width="85" height="85"><defs><path fill="#FFF" d="M4.7 74.8v4h59.65v-4H4.7m55.1-64.7-3.75-8.6L29 8.55l-1.3-2.8 4.9-2.1L31 0 17.7 5.8l1.6 3.65 4.75-2.1 1.3 2.8L1.2 24.95l3.7 8.65 54.9-23.5m-6.05-3.9.8 1.8L7 28.35l-.75-1.8L28.8 12.7l24.95-6.5M55 23.15l-3.7-1.55-7.4 17.3H7.55l-4.7-4.75L0 36.95l4.7 4.8V70.7h59.65V42.3l5.3-5.4-2.9-2.75-4.7 4.75h-13.8L55 23.15M45.4 42.9h14.95v23.8H8.7V42.9h36.7Z" id="_______1_0_Layer0_0_FILL"/></defs><use xlink:href="#_______1_0_Layer0_0_FILL" transform="translate(7.7 3.1)" id="_____1"/></svg>