<svg xmlns="http://www.w3.org/2000/svg" xmlns:xlink="http://www.w3.org/1999/xlink" preserveAspectRatio="none" width="45" height="45"><defs><path d="M26.85 2.3Q24.6 0 21.35 0q-3.2 0-5.4 2.25l-7.7 7.7Q6 12.15 6 15.3q0 1.75.65 3.2L2.2 23Q0 25.15 0 28.35q0 3.15 2.2 5.4v.05l.05.05q2.2 2.1 5.35 2.15h.05q3.25.1 5.45-2.15v.05l7.7-7.7q2.2-2.25 2.2-5.55 0-1.65-.65-3.05l4.5-4.45h-.05q2.25-2.2 2.25-5.45 0-3.2-2.2-5.4M24 5.1v.05q1.05 1.05 1.05 2.55 0 1.55-1.05 2.6l-4.2 4.15Q17.85 13 15.3 13h-.05q-3.05.05-5.25 2.15.05-1.4 1.1-2.35l7.7-7.7Q19.85 4 21.35 4 22.9 4 24 5.1M15.35 17q.85 0 1.55.35l-.6.65q-1.05 1.05-2.55 1h-.1q-.85 0-1.5-.25l.6-.6q1.05-1.1 2.6-1.15m-1.7 6h.1q3.05.05 5.25-2.05-.1 1.4-1.05 2.4l-7.7 7.7q-1.05 1-2.5.95h-.1q-1.55 0-2.6-1h.05l-.05-.05Q4 29.9 4 28.35q0-1.5 1.05-2.5l4.15-4.2Q11.1 23 13.65 23Z" id="_______14_0_Layer0_0_FILL"/></defs><use xlink:href="#_______14_0_Layer0_0_FILL" transform="translate(8 4.5)" id="_____1"/></svg>