<svg xmlns="http://www.w3.org/2000/svg" xmlns:xlink="http://www.w3.org/1999/xlink" preserveAspectRatio="none" width="45" height="45"><defs><path d="M26.25 9.75h-.05q-3.8-3.8-8.85-4.35V4h3.85V0H9.45v4h3.9v1.4q-5.1.55-8.9 4.35Q0 14.3 0 20.65 0 27 4.45 31.5v.05Q9 36 15.35 36q6.3 0 10.85-4.45 4.55-4.5 4.55-10.9t-4.5-10.9M23.4 12.6q3.35 3.35 3.35 8.05 0 4.7-3.35 8.05-3.35 3.3-8.05 3.3-4.7 0-8.05-3.3h-.05Q4 25.35 4 20.65q0-4.7 3.25-8.05l.05-.05q3.3-3.3 8-3.3h.1q4.65 0 8 3.35m-.9 11v-4h-5.15v-8.4h-4v12.4h9.15Z" id="_______6_0_Layer0_0_FILL"/></defs><use xlink:href="#_______6_0_Layer0_0_FILL" transform="translate(7.15 4.5)" id="_____1"/></svg>