<svg xmlns="http://www.w3.org/2000/svg" xmlns:xlink="http://www.w3.org/1999/xlink" preserveAspectRatio="none" width="45" height="45"><defs><path d="M34.5 24.5H0V36h34.5V24.5M4 32v-3.5h26.5V32H4m24.6-20.6q0-4.75-3.3-8.05Q21.95 0 17.25 0 12.5 0 9.2 3.35 5.8 6.7 5.8 11.4q0 4.75 3.4 8.05v-.05q3.25 3.35 8.05 3.35 4.8 0 8-3.3.05 0 .05-.05 3.3-3.2 3.3-8m-6.15-5.2q2.15 2.15 2.15 5.2 0 3.1-2.15 5.15l-.05.05q-2.05 2.15-5.15 2.15-3.1 0-5.2-2.15H12v-.05q-2.2-2.1-2.2-5.15 0-3 2.25-5.2Q14.2 4 17.25 4q3 0 5.2 2.2Z" id="_______2_0_Layer0_0_FILL"/></defs><g transform="translate(5.25 4.5)" id="Layer_1"><use xlink:href="#_______2_0_Layer0_0_FILL" id="_____1"/></g></svg>